<svg xmlns="http://www.w3.org/2000/svg" width="18.601" height="22.045" viewBox="0 0 18.601 22.045">
  <path id="fox" d="M57.566.268A.861.861,0,0,0,56.333.252L52.557,4.029a9.364,9.364,0,0,0-6.512,0L42.269.252a.861.861,0,0,0-1.233.016c-.107.113-2.5,2.73.381,7.541A9.24,9.24,0,0,0,40,12.745a.861.861,0,0,0,.2.55l7,8.436a.865.865,0,0,0,.665.314h2.86a.864.864,0,0,0,.665-.314l7-8.436a.861.861,0,0,0,.2-.55,9.241,9.241,0,0,0-1.414-4.936C60.07,3,57.673.381,57.566.268Zm-15.7,2.02,2.542,2.542a9.382,9.382,0,0,0-1.848,1.5,5.37,5.37,0,0,1-.694-4.047ZM47.01,18.8l-5.279-6.358c.007-.173.02-.343.038-.513a5.98,5.98,0,0,1,5.241,5.927V18.8Zm2.86-.944v2.468H48.732V17.856a7.705,7.705,0,0,0-6.582-7.614,7.576,7.576,0,0,1,14.3,0A7.705,7.705,0,0,0,49.87,17.856Zm1.722.944v-.944a5.98,5.98,0,0,1,5.241-5.927c.018.169.031.34.038.513ZM56.038,6.335a9.383,9.383,0,0,0-1.848-1.5l2.542-2.542A5.37,5.37,0,0,1,56.038,6.335Z" transform="translate(-40.001 0)" fill="#5386ec"/>
</svg>
