<svg xmlns="http://www.w3.org/2000/svg" width="28" height="32" viewBox="0 0 28 32">
  <g id="notes" transform="translate(5 3)">
    <g id="Group_21" data-name="Group 21" transform="translate(0 -3)">
      <path id="Path_116" data-name="Path 116" d="M12,0H11V9a2,2,0,0,1-2,2H0v1a1,1,0,0,0,1,1H12a1,1,0,0,0,1-1V1A1,1,0,0,0,12,0Z" transform="translate(3 3)" fill="#5386ec"/>
      <path id="Path_117" data-name="Path 117" d="M13,12V1a1,1,0,0,0-1-1H4a1,1,0,0,0-.707.293l-3,3A1,1,0,0,0,0,4v8a1,1,0,0,0,1,1H12A1,1,0,0,0,13,12ZM4,3A1,1,0,0,1,3,4H1L4,1Z" fill="#5386ec"/>
    </g>
    <text id="Home" transform="translate(-5 26)" fill="#5386ec" font-size="10" font-family="SegoeUI-Semibold, Segoe UI" font-weight="600"><tspan x="0" y="0">Home</tspan></text>
  </g>
</svg>
